---The Twelve Chairs---
                                       A wild and hilarious chase for a fortune in jewels.

Director: Mel Brooks

Cast: Frank Langella, Dom Deluise, Ron Moody

Year: 1970

Genre: Comedy

Company: Crossbow Productions

iMDB: http://www.imdb.com/title/tt0066495/



---Notes---

This is a 700 MB Rip for all those who have relatively lower speed connections. Subtitles file included. So, all you gotta do is write in a CD and enjoy a beautiful comedy. Ripped using Fair Use Wizard. 


---MediaInfo Extract(Technical Information)---

General
Complete name                    : C:Documents and SettingsAdministratorDesktopThe_Twelve_Chairs_DVDRipThe_Twelve_Chairs.avi
Format                           : AVI
Format/Info                      : Audio Video Interleave
File size                        : 694 MiB
Duration                         : 1h 33mn
Overall bit rate                 : 1 038 Kbps
Writing application              : FairUse Wizard - http://fairusewizard.com
Writing library                  : The best and REALLY easy backup tool

Video
ID                               : 0
Format                           : MPEG-4 Visual
Format profile                   : AdvancedSimple@L5
Format settings, BVOP            : Yes
Format settings, QPel            : No
Format settings, GMC             : No warppoints
Format settings, Matrix          : Default (MPEG)
Muxing mode                      : Packed bitstream
Codec ID                         : XVID
Codec ID/Hint                    : XviD
Duration                         : 1h 33mn
Bit rate                         : 834 Kbps
Width                            : 576 pixels
Height                           : 320 pixels
Display aspect ratio             : 16/9
Frame rate                       : 29.970 fps
Resolution                       : 24 bits
Colorimetry                      : 4:2:0
Scan type                        : Progressive
Bits/(Pixel*Frame)               : 0.151
Stream size                      : 558 MiB (80%)
Writing library                  : XviD 1.2.0.dev47 (UTC 2006-11-01)

Audio
ID                               : 1
Format                           : AC-3
Format/Info                      : Audio Coding 3
Codec ID                         : 2000
Duration                         : 1h 33mn
Bit rate mode                    : Constant
Bit rate                         : 192 Kbps
Channel(s)                       : 2 channels
Channel positions                : L R
Sampling rate                    : 48.0 KHz
Stream size                      : 128 MiB (19%)
Alignment                        : Split accross interleaves
Interleave, duration             : 33 ms (1.00 video frame)
Interleave, preload duration     : 500 ms

